<?xml version="1.0" encoding="utf-8"?>
<svg fill="#000" viewBox="0 0 128 128" width="128px" height="128px" xmlns="http://www.w3.org/2000/svg">
  <path d="M 80.472 16.597 C 79.053 16.597 77.968 17.682 77.968 19.101 C 77.968 20.52 79.053 21.605 80.472 21.605 L 99.502 21.605 L 60.775 60.333 C 59.773 61.334 59.773 62.919 60.775 63.837 C 61.275 64.338 61.943 64.589 62.527 64.589 C 63.111 64.589 63.779 64.338 64.279 63.837 L 103.007 25.11 L 103.007 44.14 C 103.007 45.559 104.092 46.644 105.511 46.644 C 106.93 46.644 108.015 45.559 108.015 44.14 L 108.015 19.101 C 108.015 17.682 106.93 16.597 105.511 16.597 L 80.472 16.597 Z M 30.393 33.29 C 24.384 33.29 19.543 38.131 19.543 44.14 L 19.543 94.219 C 19.543 100.228 24.384 105.069 30.393 105.069 L 80.472 105.069 C 86.481 105.069 91.322 100.228 91.322 94.219 L 91.322 56.66 C 91.322 55.241 90.237 54.156 88.818 54.156 C 87.399 54.156 86.314 55.241 86.314 56.66 L 86.314 94.219 C 86.314 97.474 83.727 100.061 80.472 100.061 L 30.393 100.061 C 27.138 100.061 24.551 97.474 24.551 94.219 L 24.551 44.14 C 24.551 40.885 27.138 38.298 30.393 38.298 L 67.952 38.298 C 69.371 38.298 70.456 37.213 70.456 35.794 C 70.456 34.375 69.371 33.29 67.952 33.29 L 30.393 33.29 Z" style=""/>
</svg>