<svg id="Icons" xmlns="http://www.w3.org/2000/svg" viewBox="0 0 28 26.81"><defs><style>.cls-1{fill:#1f2735;}.cls-1,.cls-2{stroke:#097c64;stroke-linecap:round;stroke-linejoin:round;stroke-width:2px;}.cls-2{fill:none;}.cls-3{fill:#097c64;}.cls-4{font-size:10.8px;fill:#fff;font-family:SegoePrint-Bold, Segoe Print;font-weight:700;}.cls-5{letter-spacing:0.05em;}</style></defs><title>logo</title><path class="cls-1" d="M27,5H5A2,2,0,0,0,3,7V25a2,2,0,0,0,2,2H27a2,2,0,0,0,2-2V7A2,2,0,0,0,27,5Z" transform="translate(-2 -4)"/><line class="cls-2" x1="1" y1="7" x2="27" y2="7"/><path class="cls-3" d="M7,9A1,1,0,0,1,6,8a.91.91,0,0,1,.3-.7l.1-.1c.1,0,.1-.1.2-.1s.1-.1.2-.1h.4c.1,0,.1,0,.2.1s.1.1.2.1l.1.1c.1.1.2.2.2.3A.6.6,0,0,1,8,8a.6.6,0,0,1-.1.4c0,.1-.1.2-.2.3A.91.91,0,0,1,7,9Z" transform="translate(-2 -4)"/><path class="cls-3" d="M10,9A1,1,0,0,1,9,8a.6.6,0,0,1,.1-.4c.1-.1.1-.2.2-.3s.2-.2.3-.2a.91.91,0,0,1,1.1.2c.1.1.2.2.2.3A.6.6,0,0,1,11,8a1,1,0,0,1-1,1Z" transform="translate(-2 -4)"/><path class="cls-3" d="M13,9a.6.6,0,0,1-.4-.1c-.1-.1-.2-.1-.3-.2s-.2-.2-.2-.3A.6.6,0,0,1,12,8a.6.6,0,0,1,.1-.4c.1-.1.1-.2.2-.3a1,1,0,0,1,1.4,0c.1.1.2.2.2.3A.6.6,0,0,1,14,8a.6.6,0,0,1-.1.4c-.1.1-.1.2-.2.3A.91.91,0,0,1,13,9Z" transform="translate(-2 -4)"/><text x="-2" y="-4"/><text class="cls-4" transform="matrix(0.97, -0.23, 0.23, 0.97, 3.32, 21.61)">G<tspan class="cls-5" x="8.36" y="0">F</tspan><tspan x="15.31" y="0">V</tspan></text></svg>