<svg id="Layer_1" data-name="Layer 1" xmlns="http://www.w3.org/2000/svg" xmlns:xlink="http://www.w3.org/1999/xlink" viewBox="0 0 612.29 858.9"><defs><style>.cls-1{fill:none;}.cls-13,.cls-2,.cls-35,.cls-4,.cls-54,.cls-93{fill:#fff;}.cls-21,.cls-3,.cls-53{fill:#333;}.cls-4{font-size:35.28px;}.cls-114,.cls-116,.cls-18,.cls-21,.cls-27,.cls-35,.cls-4,.cls-41,.cls-54,.cls-58,.cls-68,.cls-69,.cls-73{font-family:OpenSans-Bold, Open Sans;font-weight:700;}.cls-5{letter-spacing:0.01em;}.cls-6{letter-spacing:0em;}.cls-7{letter-spacing:-0.03em;}.cls-8{letter-spacing:-0.01em;}.cls-9{letter-spacing:0em;}.cls-10{letter-spacing:-0.03em;}.cls-11{letter-spacing:-0.02em;}.cls-12{letter-spacing:0em;}.cls-13{font-size:14px;}.cls-100,.cls-101,.cls-110,.cls-115,.cls-13,.cls-49,.cls-66,.cls-93{font-family:OpenSans-Regular, Open Sans;}.cls-14{letter-spacing:-0.02em;}.cls-15{letter-spacing:-0.01em;}.cls-16{letter-spacing:-0.01em;}.cls-17{letter-spacing:-0.05em;}.cls-18{font-size:13.72px;}.cls-19{letter-spacing:0em;}.cls-20{letter-spacing:0em;}.cls-21{font-size:10.78px;}.cls-22{letter-spacing:-0.01em;}.cls-23{letter-spacing:-0.01em;}.cls-24{letter-spacing:-0.01em;}.cls-25{letter-spacing:0em;}.cls-26{letter-spacing:-0.01em;}.cls-27,.cls-93{font-size:12px;}.cls-28{letter-spacing:0em;}.cls-29{letter-spacing:0em;}.cls-30{letter-spacing:0em;}.cls-31{letter-spacing:-0.01em;}.cls-32{letter-spacing:0em;}.cls-33{letter-spacing:-0.04em;}.cls-34{letter-spacing:-0.04em;}.cls-35{font-size:10.78px;}.cls-36{letter-spacing:0.01em;}.cls-37{letter-spacing:0.01em;}.cls-38{letter-spacing:0em;}.cls-39{letter-spacing:-0.01em;}.cls-40{letter-spacing:0em;}.cls-41{font-size:13.72px;}.cls-42{letter-spacing:-0.01em;}.cls-43{letter-spacing:-0.02em;}.cls-44{letter-spacing:0em;}.cls-45{letter-spacing:0em;}.cls-46{letter-spacing:-0.01em;}.cls-47{letter-spacing:0em;}.cls-48{letter-spacing:2.06em;}.cls-49,.cls-73{font-size:11px;}.cls-101,.cls-110,.cls-49,.cls-57{fill:#1a1a1a;}.cls-50{letter-spacing:0.01em;}.cls-51{letter-spacing:-0.04em;}.cls-52{letter-spacing:0em;}.cls-53,.cls-57{fill-rule:evenodd;}.cls-54{font-size:12px;}.cls-55,.cls-58{fill:#e5e5e5;}.cls-56{clip-path:url(#clip-path);}.cls-58{font-size:13.35px;}.cls-59{letter-spacing:-0.01em;}.cls-60{letter-spacing:0em;}.cls-61{letter-spacing:0em;}.cls-62{letter-spacing:-0.01em;}.cls-63{clip-path:url(#clip-path-2);}.cls-64{letter-spacing:0em;}.cls-65{letter-spacing:-0.01em;}.cls-101,.cls-110,.cls-115,.cls-66{font-size:10px;}.cls-115,.cls-67,.cls-68{letter-spacing:0.01em;}.cls-70{letter-spacing:-0.01em;}.cls-71{letter-spacing:0em;}.cls-72{letter-spacing:-0.01em;}.cls-74{letter-spacing:-0.01em;}.cls-75{letter-spacing:0em;}.cls-76{letter-spacing:-0.01em;}.cls-77{letter-spacing:-0.01em;}.cls-78{letter-spacing:-0.01em;}.cls-79{letter-spacing:0em;}.cls-80{letter-spacing:-0.01em;}.cls-81{letter-spacing:-0.03em;}.cls-82{letter-spacing:0em;}.cls-83{letter-spacing:-0.1em;}.cls-84{letter-spacing:-0.03em;}.cls-85{letter-spacing:0em;}.cls-86{letter-spacing:-0.02em;}.cls-87{letter-spacing:0em;}.cls-88{letter-spacing:0em;}.cls-89{letter-spacing:-0.02em;}.cls-90{letter-spacing:0.02em;}.cls-91{letter-spacing:-0.05em;}.cls-92{clip-path:url(#clip-path-3);}.cls-94{letter-spacing:-0.02em;}.cls-95{letter-spacing:0.02em;}.cls-96{letter-spacing:-0.01em;}.cls-97{letter-spacing:0em;}.cls-98{letter-spacing:-0.04em;}.cls-99{letter-spacing:-0.01em;}.cls-100{font-size:11.5px;}.cls-102{letter-spacing:-0.03em;}.cls-103{letter-spacing:0em;}.cls-104{letter-spacing:0.11em;}.cls-105{letter-spacing:-0.01em;}.cls-106{letter-spacing:0em;}.cls-107{letter-spacing:-0.01em;}.cls-108{letter-spacing:-0.01em;}.cls-109{letter-spacing:-0.01em;}.cls-110{letter-spacing:-0.01em;}.cls-111{letter-spacing:0em;}.cls-112{letter-spacing:-0.01em;}.cls-113{letter-spacing:0em;}.cls-114,.cls-116{font-size:10.5px;}.cls-114{letter-spacing:0.01em;}.cls-116{letter-spacing:0.01em;}.cls-117{letter-spacing:-0.04em;}.cls-118{letter-spacing:-0.04em;}.cls-119{letter-spacing:-0.07em;}</style><clipPath id="clip-path"><rect class="cls-1" x="-2.75" y="7.33" width="612.29" height="858.9"/></clipPath><clipPath id="clip-path-2"><rect class="cls-1" y="-2.33" width="612.29" height="858.9"/></clipPath><clipPath id="clip-path-3"><rect class="cls-1" width="612.29" height="858.9"/></clipPath></defs><title>curriculo_GabrielFigueiredo</title><rect class="cls-2" x="5.85" y="7.5" width="595.08" height="842.89"/><rect class="cls-3" x="8.71" y="8.5" width="594.88" height="111.9"/><text class="cls-4" transform="translate(89.75 69.75)"><tspan class="cls-5">G</tspan><tspan x="25.79" y="0">ab</tspan><tspan class="cls-6" x="69.42" y="0">r</tspan><tspan x="85.54" y="0">iel </tspan><tspan class="cls-7" x="137.08" y="0">F</tspan><tspan x="155.52" y="0">iguei</tspan><tspan class="cls-8" x="241.01" y="0">r</tspan><tspan class="cls-9" x="256.67" y="0">edo</tspan><tspan class="cls-10" x="321.68" y="0"> </tspan><tspan class="cls-11" x="329.61" y="0">V</tspan><tspan class="cls-9" x="351.97" y="0">iei</tspan><tspan class="cls-12" x="394.34" y="0">r</tspan><tspan x="410.18" y="0">a</tspan></text><text class="cls-13" transform="translate(37.25 101.69)"><tspan class="cls-14">P</tspan><tspan class="cls-15" x="8.19" y="0">r</tspan><tspan x="13.79" y="0">o</tspan><tspan class="cls-16" x="22.21" y="0">gr</tspan><tspan x="35.39" y="0">amador J</tspan><tspan class="cls-17" x="93.99" y="0">r</tspan><tspan x="98.97" y="0">.</tspan></text><text class="cls-18" transform="translate(201.46 212.58)">EXPERIÊNCIA P<tspan class="cls-19" x="100.49" y="0">R</tspan><tspan class="cls-20" x="109.59" y="0">OFISSIONAL</tspan></text><text class="cls-21" transform="translate(211.1 340.39) scale(1.01 1)">N<tspan class="cls-22" x="8.77" y="0">o</tspan><tspan class="cls-23" x="15.37" y="0">v</tspan><tspan x="21.4" y="0">emb</tspan><tspan class="cls-24" x="45.18" y="0">r</tspan><tspan class="cls-25" x="49.98" y="0">o/2018 - </tspan><tspan class="cls-26" x="94.84" y="0">Novembro/2019</tspan></text><text class="cls-27" transform="translate(210.6 355.25) scale(1.01 1)">P<tspan class="cls-28" x="7.53" y="0">R</tspan><tspan x="15.48" y="0">OG</tspan><tspan class="cls-29" x="33.72" y="0">R</tspan><tspan class="cls-30" x="41.69" y="0">A</tspan><tspan class="cls-31" x="49.92" y="0">M</tspan><tspan class="cls-32" x="61.13" y="0">ADOR JR., JMG</tspan><tspan class="cls-33" x="144.71" y="0"> </tspan><tspan x="147.35" y="0">TECNO</tspan><tspan class="cls-34" x="187.97" y="0">L</tspan><tspan x="194.3" y="0">OGIA</tspan></text><rect class="cls-3" x="8.7" y="749.06" width="166.96" height="101.33"/><text class="cls-35" transform="translate(49.86 780.54)">(21) 96407-2270</text><path class="cls-2" d="M27.43,791.56c0,.38,0,.8,0,1.44v3a3,3,0,0,1-.75,2.38,2.71,2.71,0,0,1-1.89.63,3.37,3.37,0,0,1-1.74-.43l.24-.73a2.9,2.9,0,0,0,1.53.41c1,0,1.68-.5,1.68-1.82v-.58h0a1.87,1.87,0,0,1-1.66.87,2.33,2.33,0,0,1-2.22-2.54,2.51,2.51,0,0,1,2.35-2.78,1.75,1.75,0,0,1,1.63.91h0l0-.79Zm-1,2.06a1.45,1.45,0,0,0-.05-.43,1.38,1.38,0,0,0-1.33-1c-.9,0-1.55.76-1.55,2,0,1,.52,1.88,1.54,1.88a1.4,1.4,0,0,0,1.32-1,1.79,1.79,0,0,0,.07-.51Zm5.4,3.16-.07-.66h0a1.94,1.94,0,0,1-1.59.78,1.49,1.49,0,0,1-1.6-1.5c0-1.26,1.12-1.95,3.14-1.94v-.11a1.08,1.08,0,0,0-1.19-1.21,2.54,2.54,0,0,0-1.35.39l-.22-.62a3.24,3.24,0,0,1,1.71-.47c1.6,0,2,1.09,2,2.14v1.95a7.88,7.88,0,0,0,.08,1.25Zm-.14-2.66c-1,0-2.21.16-2.21,1.17a.84.84,0,0,0,.9.91,1.29,1.29,0,0,0,1.26-.87,1.12,1.12,0,0,0,.05-.31Zm2.41,2.66c0-.35,0-.88,0-1.35v-6.31h.94v3.28h0a2,2,0,0,1,1.78-1c1.29,0,2.2,1.08,2.19,2.67,0,1.86-1.17,2.79-2.33,2.79a1.86,1.86,0,0,1-1.75-1h0l0,.86Zm1-2.09a1.76,1.76,0,0,0,0,.34,1.46,1.46,0,0,0,1.42,1.12c1,0,1.59-.81,1.59-2,0-1-.54-1.94-1.56-1.94a1.51,1.51,0,0,0-1.44,1.16,2.06,2.06,0,0,0,0,.39Zm5.19-1.5c0-.62,0-1.14,0-1.63h.83l0,1h0a1.57,1.57,0,0,1,1.45-1.15.77.77,0,0,1,.27,0v.89a1.61,1.61,0,0,0-.33,0,1.34,1.34,0,0,0-1.27,1.22,2.87,2.87,0,0,0,0,.44v2.78h-.94Zm4.63-3.1a.59.59,0,1,1-1.18,0,.58.58,0,0,1,.6-.59A.56.56,0,0,1,44.92,790.09Zm-1.06,6.69v-5.22h1v5.22Zm3-2.44a1.67,1.67,0,0,0,1.79,1.82,3.4,3.4,0,0,0,1.44-.27l.16.68a4.21,4.21,0,0,1-1.73.32A2.42,2.42,0,0,1,46,794.26a2.53,2.53,0,0,1,2.44-2.82,2.22,2.22,0,0,1,2.16,2.46,3.16,3.16,0,0,1,0,.44Zm2.78-.68a1.35,1.35,0,0,0-1.31-1.54,1.58,1.58,0,0,0-1.46,1.54Zm2.09-4.54h.95v7.66h-.95Zm2.64,7.66v-4.5h-.73v-.72h.73v-.28A2.1,2.1,0,0,1,56.7,789a2.64,2.64,0,0,1,1.32.35l-.27.72a2,2,0,0,0-1.1-.3c-1,0-1.29.7-1.29,1.53v.26h3v5.22h-.94v-4.5H55.36v4.5Zm10-5.22c0,.38,0,.8,0,1.44v3a3,3,0,0,1-.74,2.38,2.75,2.75,0,0,1-1.9.63,3.36,3.36,0,0,1-1.73-.43l.24-.73a2.88,2.88,0,0,0,1.53.41c1,0,1.68-.5,1.68-1.82v-.58h0a1.89,1.89,0,0,1-1.66.87,2.33,2.33,0,0,1-2.22-2.54,2.51,2.51,0,0,1,2.35-2.78,1.73,1.73,0,0,1,1.62.91h0l.05-.79Zm-1,2.06a1.18,1.18,0,0,0-.06-.43,1.35,1.35,0,0,0-1.32-1c-.91,0-1.55.76-1.55,2,0,1,.51,1.88,1.54,1.88a1.38,1.38,0,0,0,1.31-1,1.81,1.81,0,0,0,.08-.51Zm6.87,1.74c0,.54,0,1,.05,1.42h-.84l-.06-.85h0a2,2,0,0,1-1.72,1c-.82,0-1.8-.45-1.8-2.29v-3.05h.94v2.89c0,1,.31,1.66,1.17,1.66a1.37,1.37,0,0,0,1.25-.86,1.46,1.46,0,0,0,.08-.48v-3.21h.95Zm2.11-1a1.67,1.67,0,0,0,1.78,1.82,3.48,3.48,0,0,0,1.45-.27l.16.68a4.24,4.24,0,0,1-1.73.32,2.43,2.43,0,0,1-2.57-2.63A2.54,2.54,0,0,1,74,791.44a2.21,2.21,0,0,1,2.15,2.46,3.59,3.59,0,0,1,0,.44Zm2.78-.68a1.35,1.35,0,0,0-1.32-1.54,1.57,1.57,0,0,0-1.45,1.54Zm3.14-3.57a.55.55,0,0,1-.6.59.57.57,0,0,1-.57-.59.58.58,0,0,1,.59-.59A.56.56,0,0,1,78.38,790.09Zm-1,6.69v-5.22h1v5.22Zm2.52-3.59c0-.62,0-1.14,0-1.63h.83l0,1h0a1.57,1.57,0,0,1,1.45-1.15.8.8,0,0,1,.27,0v.89a1.61,1.61,0,0,0-.33,0,1.33,1.33,0,0,0-1.27,1.22,2.87,2.87,0,0,0,0,.44v2.78h-.94Zm4,1.15a1.67,1.67,0,0,0,1.78,1.82,3.48,3.48,0,0,0,1.45-.27l.16.68a4.3,4.3,0,0,1-1.74.32,2.42,2.42,0,0,1-2.56-2.63,2.54,2.54,0,0,1,2.45-2.82,2.21,2.21,0,0,1,2.15,2.46,3.59,3.59,0,0,1,0,.44Zm2.77-.68a1.34,1.34,0,0,0-1.31-1.54,1.57,1.57,0,0,0-1.45,1.54Zm6.6-4.54v6.31c0,.47,0,1,0,1.35h-.85l0-.9h0a1.93,1.93,0,0,1-1.78,1,2.38,2.38,0,0,1-2.23-2.65,2.5,2.5,0,0,1,2.34-2.81,1.74,1.74,0,0,1,1.57.8h0v-3.12Zm-1,4.57a1.81,1.81,0,0,0,0-.4,1.39,1.39,0,0,0-1.37-1.1c-1,0-1.56.86-1.56,2s.52,1.94,1.54,1.94A1.43,1.43,0,0,0,92.18,795a1.78,1.78,0,0,0,0-.41Zm7.24.44a2.54,2.54,0,0,1-2.59,2.77,2.48,2.48,0,0,1-2.5-2.68A2.55,2.55,0,0,1,97,791.44,2.47,2.47,0,0,1,99.46,794.13Zm-4.13,0c0,1.15.66,2,1.58,2s1.59-.85,1.59-2c0-.88-.45-2-1.57-2S95.33,793.19,95.33,794.18Zm5.62-2.62,1,2.94c.17.47.31.9.42,1.33h0c.12-.43.27-.86.44-1.33l1-2.94h1l-2,5.22h-.91l-2-5.22Zm9.68,5.91a3.83,3.83,0,0,1-1.92.43,3.21,3.21,0,0,1-3.26-3.36,3.94,3.94,0,0,1,3.93-4.14,3,3,0,0,1,3.14,3.11c0,1.62-.91,2.57-1.92,2.57a.8.8,0,0,1-.8-1h0a1.69,1.69,0,0,1-1.52,1,1.23,1.23,0,0,1-1.16-1.36,2.53,2.53,0,0,1,2.55-2.55,2.83,2.83,0,0,1,1.15.22l-.36,2c-.17.82,0,1.2.32,1.21.55,0,1.16-.72,1.16-2a2.47,2.47,0,0,0-2.6-2.69,3.31,3.31,0,0,0-3.24,3.58,2.7,2.7,0,0,0,2.77,2.92,3.33,3.33,0,0,0,1.63-.38Zm-.59-4.66a2,2,0,0,0-.54-.07,1.85,1.85,0,0,0-1.71,1.94c0,.47.23.82.71.82s1.19-.8,1.31-1.47Zm8.17-1.25c0,.38,0,.8,0,1.44v3a3,3,0,0,1-.75,2.38,2.73,2.73,0,0,1-1.89.63,3.37,3.37,0,0,1-1.74-.43l.24-.73a2.88,2.88,0,0,0,1.53.41c1,0,1.68-.5,1.68-1.82v-.58h0a1.87,1.87,0,0,1-1.66.87,2.33,2.33,0,0,1-2.22-2.54,2.51,2.51,0,0,1,2.35-2.78,1.73,1.73,0,0,1,1.62.91h0l0-.79Zm-1,2.06a1.18,1.18,0,0,0-.06-.43,1.35,1.35,0,0,0-1.32-1c-.91,0-1.55.76-1.55,2,0,1,.52,1.88,1.54,1.88a1.38,1.38,0,0,0,1.31-1,1.51,1.51,0,0,0,.08-.51Zm2.45-.65c0-.53,0-1-.05-1.41h.83l.05.84h0a1.8,1.8,0,0,1,1.64-1,1.53,1.53,0,0,1,1.47,1h0a2.21,2.21,0,0,1,.59-.68,1.74,1.74,0,0,1,1.15-.37c.69,0,1.71.45,1.71,2.27v3.07h-.93v-2.95c0-1-.36-1.61-1.13-1.61a1.24,1.24,0,0,0-1.12.86,1.68,1.68,0,0,0-.07.48v3.22h-.93v-3.13c0-.83-.36-1.43-1.09-1.43a1.29,1.29,0,0,0-1.17.95,1.39,1.39,0,0,0-.08.46v3.15h-.92Zm11.87,3.81-.07-.66h0a1.94,1.94,0,0,1-1.6.78,1.48,1.48,0,0,1-1.59-1.5c0-1.26,1.12-1.95,3.13-1.94v-.11a1.08,1.08,0,0,0-1.18-1.21,2.58,2.58,0,0,0-1.36.39l-.22-.62a3.28,3.28,0,0,1,1.72-.47c1.59,0,2,1.09,2,2.14v1.95a6.79,6.79,0,0,0,.09,1.25Zm-.14-2.66c-1,0-2.2.16-2.2,1.17a.83.83,0,0,0,.89.91,1.29,1.29,0,0,0,1.26-.87,1.12,1.12,0,0,0,0-.31Zm3.51-4a.59.59,0,1,1-1.18,0,.58.58,0,0,1,.6-.59A.56.56,0,0,1,134.92,790.09Zm-1.06,6.69v-5.22h.95v5.22Zm2.52-7.66h1v7.66h-1Zm2.21,7.1a.64.64,0,0,1,.65-.68.68.68,0,1,1-.65.68Zm6.18.37a3.51,3.51,0,0,1-1.5.3,2.48,2.48,0,0,1-2.59-2.66,2.65,2.65,0,0,1,2.8-2.78,3.14,3.14,0,0,1,1.31.27l-.21.74a2.22,2.22,0,0,0-1.1-.25,2,2,0,0,0,0,3.93,2.85,2.85,0,0,0,1.17-.26Zm5.77-2.46a2.55,2.55,0,0,1-2.6,2.77,2.48,2.48,0,0,1-2.5-2.68,2.55,2.55,0,0,1,2.58-2.78A2.48,2.48,0,0,1,150.54,794.13Zm-4.14,0c0,1.15.66,2,1.58,2s1.59-.85,1.59-2c0-.88-.45-2-1.57-2S146.4,793.19,146.4,794.18Zm5.33-1.21c0-.53,0-1,0-1.41h.83l0,.84h0a1.8,1.8,0,0,1,1.63-1,1.55,1.55,0,0,1,1.48,1h0a2.19,2.19,0,0,1,.58-.68,1.76,1.76,0,0,1,1.15-.37c.69,0,1.72.45,1.72,2.27v3.07h-.93v-2.95c0-1-.36-1.61-1.13-1.61a1.23,1.23,0,0,0-1.12.86,1.66,1.66,0,0,0-.08.48v3.22H155v-3.13c0-.83-.37-1.43-1.09-1.43a1.29,1.29,0,0,0-1.17.95,1.17,1.17,0,0,0-.08.46v3.15h-.93Z"/><text class="cls-35" transform="translate(26.55 814.09)">Linked<tspan class="cls-36" x="36.34" y="0">I</tspan><tspan x="40" y="0">n: </tspan><tspan class="cls-37" x="52.96" y="0">G</tspan><tspan x="60.84" y="0">ab</tspan><tspan class="cls-38" x="74.17" y="0">r</tspan><tspan x="79.11" y="0">ielF</tspan><tspan class="cls-39" x="97.97" y="0">V</tspan><tspan x="104.81" y="0">iei</tspan><tspan class="cls-40" x="117.76" y="0">r</tspan><tspan x="122.6" y="0">a</tspan></text><text class="cls-41" transform="translate(201.46 441.8) scale(1.01 1)">FOR<tspan class="cls-42" x="27.51" y="0">M</tspan><tspan class="cls-43" x="40.33" y="0">A</tspan><tspan class="cls-44" x="49.59" y="0">Ç</tspan><tspan class="cls-43" x="58.39" y="0">Ã</tspan><tspan x="67.65" y="0">O EDU</tspan><tspan class="cls-45" x="110.35" y="0">C</tspan><tspan class="cls-46" x="119.15" y="0">A</tspan><tspan class="cls-47" x="128.43" y="0">CIONAL</tspan></text><text class="cls-41" transform="translate(201.46 601.82) scale(1.01 1)">CURSOS ONLINE<tspan class="cls-48" x="110.99" y="0">	</tspan></text><text class="cls-49" transform="translate(214.23 624.12)"><tspan class="cls-50">Bootcamp desenvolvedor Full Stack</tspan><tspan x="185.32" y="0" xml:space="preserve"> - IGTI</tspan></text><text class="cls-49" transform="translate(214.23 643.73)">Oracle ONE Java -<tspan class="cls-51" x="89.12" y="0"> </tspan><tspan class="cls-52" x="91.54" y="0">Alura</tspan></text><text class="cls-49" transform="translate(214.23 663.35)">Backend Developer Carrefour - DIO</text><polygon class="cls-53" points="8.74 203.6 163.74 203.6 157.88 211.46 150.36 221.56 8.74 221.56 8.74 203.6"/><text class="cls-54" transform="translate(16.56 217.5)">Habilidades técnicas</text><rect class="cls-55" x="205.35" y="409.89" width="373.27" height="2.33"/><rect class="cls-55" x="201.46" y="572.33" width="373.27" height="2.33"/><g class="cls-56"><path class="cls-57" d="M48.51,734.62h81.85a14.29,14.29,0,0,1,14.25,14.25h0a14.29,14.29,0,0,1-14.25,14.25H48.51a14.29,14.29,0,0,1-14.25-14.25h0a14.29,14.29,0,0,1,14.25-14.25"/></g><text class="cls-58" transform="translate(62.21 752.59)"><tspan class="cls-59">C</tspan><tspan x="8.37" y="0">o</tspan><tspan class="cls-60" x="16.63" y="0">n</tspan><tspan x="25.35" y="0">t</tspan><tspan class="cls-61" x="31.14" y="0">a</tspan><tspan class="cls-62" x="39.15" y="0">t</tspan><tspan x="44.88" y="0">o</tspan></text><g class="cls-63"><polygon class="cls-53" points="8.9 641.07 162.35 641.07 156.56 648.93 149.11 659.03 8.9 659.03 8.9 641.07"/></g><text class="cls-54" transform="translate(15.56 655.19)"><tspan class="cls-64">O</tspan><tspan x="9.58" y="0">ut</tspan><tspan class="cls-65" x="22.67" y="0">r</tspan><tspan x="28.01" y="0">os Idiomas</tspan></text><rect class="cls-1" width="612.29" height="858.9"/><rect class="cls-1" width="612.29" height="858.9"/><rect class="cls-1" width="612.29" height="858.9"/><rect class="cls-1" width="612.29" height="858.9"/><rect class="cls-1" width="612.29" height="858.9"/><rect class="cls-1" width="612.29" height="858.9"/><text class="cls-66" transform="translate(14.79 680.31)"><tspan class="cls-67">- </tspan><tspan class="cls-68" x="6" y="0">I</tspan><tspan class="cls-69" x="9.4" y="0">nglês:</tspan><tspan x="38.4" y="0" xml:space="preserve"> Intermediário</tspan></text><rect class="cls-1" width="612.29" height="858.9"/><text class="cls-21" transform="translate(214.73 460.09) scale(1.01 1)">Janei<tspan class="cls-70" x="26.83" y="0">r</tspan><tspan x="31.62" y="0">o/2019 - </tspan><tspan class="cls-24" x="76.48" y="0">A</tspan><tspan class="cls-25" x="83.82" y="0">tualme</tspan><tspan class="cls-71" x="122.35" y="0">n</tspan><tspan class="cls-72" x="129.4" y="0">t</tspan><tspan x="134.02" y="0">e</tspan></text><text class="cls-73" transform="translate(214.23 474.95) scale(1.01 1)">B<tspan class="cls-74" x="7.39" y="0">A</tspan><tspan class="cls-75" x="14.83" y="0">CHARELADO EM SISTE</tspan><tspan class="cls-76" x="132.5" y="0">M</tspan><tspan x="142.76" y="0">AS DE INFOR</tspan><tspan class="cls-77" x="211.07" y="0">M</tspan><tspan class="cls-78" x="221.34" y="0">A</tspan><tspan class="cls-79" x="228.76" y="0">Ç</tspan><tspan class="cls-80" x="235.82" y="0">Ã</tspan><tspan class="cls-81" x="243.25" y="0">O</tspan><tspan class="cls-82" x="251.63" y="0">, UF</tspan><tspan class="cls-83" x="271.98" y="0">F</tspan><tspan x="276.96" y="0">. 6° </tspan><tspan class="cls-84" x="296.81" y="0">P</tspan><tspan x="303.44" y="0">e</tspan><tspan class="cls-85" x="309.94" y="0">r</tspan><tspan x="314.97" y="0">íodo</tspan></text><text class="cls-21" transform="translate(214.73 501.14) scale(1.01 1)">2016 - 2018</text><text class="cls-73" transform="translate(214.23 516) scale(1.01 1)">TÉCNI<tspan class="cls-86" x="32.12" y="0">C</tspan><tspan x="38.91" y="0">O EM P</tspan><tspan class="cls-87" x="76.82" y="0">R</tspan><tspan x="84.11" y="0">OG</tspan><tspan class="cls-79" x="100.83" y="0">R</tspan><tspan class="cls-88" x="108.13" y="0">A</tspan><tspan class="cls-77" x="115.69" y="0">M</tspan><tspan class="cls-89" x="125.96" y="0">A</tspan><tspan class="cls-85" x="133.39" y="0">Ç</tspan><tspan class="cls-80" x="140.43" y="0">Ã</tspan><tspan x="147.86" y="0">O DE JOGOS, C</tspan><tspan class="cls-90" x="224.82" y="0">E</tspan><tspan x="231.17" y="0">JLL - N</tspan><tspan class="cls-91" x="265.44" y="0">A</tspan><tspan x="272.46" y="0">VE</tspan></text><g class="cls-92"><polyline class="cls-53" points="170.17 850.39 175.67 850.39 175.67 179.89 170.17 179.89"/></g><text class="cls-93" transform="translate(311.75 101.69)"><tspan class="cls-94">P</tspan><tspan x="6.92" y="0">o</tspan><tspan class="cls-95" x="14.14" y="0">r</tspan><tspan x="19.32" y="0">t</tspan><tspan class="cls-96" x="23.6" y="0">f</tspan><tspan x="27.49" y="0">ólio: </tspan><tspan class="cls-97" x="54.25" y="0">https://gabrielfvieira.github.io/portfolio</tspan></text><rect class="cls-1" width="612.29" height="858.9"/><rect class="cls-1" width="612.29" height="858.9"/><rect class="cls-1" width="612.29" height="858.9"/><rect class="cls-1" width="612.29" height="858.9"/><rect class="cls-3" x="8.7" y="179.89" width="595.08" height="5.54"/><rect class="cls-3" x="8.5" y="114.86" width="595.08" height="5.54"/><rect class="cls-1" width="612.29" height="858.9"/><text class="cls-35" transform="translate(34.6 829.53)"><tspan class="cls-38">R</tspan><tspan x="7.16" y="0">esidência:</tspan><tspan class="cls-98" x="60.86" y="0"> </tspan><tspan class="cls-99" x="63.23" y="0">T</tspan><tspan x="69.34" y="0">ijuca, RJ</tspan></text><text class="cls-100" transform="translate(26.55 138.63) scale(1.01 1)">Sou desenvolvedor de aplicações Java com 3 anos de experiência no mercado, com o foco em Web. <tspan x="0" y="13.8">Atualmente em busca de novas oportunidades para seguir carreira como programador Java ou .Net.</tspan></text><text class="cls-101" transform="translate(214.23 531.89)"><tspan class="cls-102">F</tspan><tspan x="4.85" y="0">o</tspan><tspan class="cls-103" x="10.87" y="0">r</tspan><tspan x="14.99" y="0">mado</tspan><tspan class="cls-104" x="41.94" y="0"> </tspan><tspan x="45.62" y="0">no</tspan><tspan class="cls-104" x="57.77" y="0"> </tspan><tspan x="61.45" y="0">curso</tspan><tspan class="cls-104" x="87.24" y="0"> </tspan><tspan class="cls-105" x="90.91" y="0">t</tspan><tspan x="94.43" y="0">écni</tspan><tspan class="cls-106" x="113.49" y="0">c</tspan><tspan x="118.23" y="0">o</tspan><tspan class="cls-104" x="124.25" y="0"> </tspan><tspan x="127.92" y="0">de</tspan><tspan class="cls-104" x="139.66" y="0"> </tspan><tspan x="143.34" y="0">p</tspan><tspan class="cls-107" x="149.45" y="0">r</tspan><tspan x="153.44" y="0">o</tspan><tspan class="cls-106" x="159.46" y="0">gr</tspan><tspan x="168.87" y="0">amação</tspan><tspan class="cls-104" x="205.61" y="0"> </tspan><tspan x="209.28" y="0">de</tspan><tspan class="cls-104" x="221.02" y="0"> </tspan><tspan x="224.7" y="0">jogos</tspan><tspan class="cls-104" x="249.45" y="0"> </tspan><tspan x="253.12" y="0">di</tspan><tspan class="cls-108" x="261.77" y="0">g</tspan><tspan x="267.15" y="0">itais</tspan><tspan class="cls-104" x="286.08" y="0"> </tspan><tspan x="289.76" y="0">no</tspan><tspan class="cls-104" x="301.91" y="0"> </tspan><tspan class="cls-109" x="305.58" y="0">C</tspan><tspan x="311.77" y="0">olé</tspan><tspan class="cls-108" x="325.93" y="0">g</tspan><tspan x="331.31" y="0">io </tspan><tspan x="0" y="12">Estadual José Leite Lopes. Jogos produzidos expostos em eventos como: </tspan><tspan x="0" y="23.99">Game XP, Big Festival e Making Makers.</tspan></text><text class="cls-110" transform="translate(211.1 370.55)">Desenvolvimento e manutenção do sistema de inventário baseado no <tspan x="0" y="12">framework .NET, em paralelo à atividades envolvendo o banco de dados SQL </tspan><tspan x="0" y="23.99">Server no ambiente do cliente.</tspan></text><text class="cls-21" transform="translate(211.1 239) scale(1.01 1)">Janeiro/2020 - <tspan class="cls-70" x="76.59" y="0">A</tspan><tspan class="cls-111" x="83.92" y="0">tualme</tspan><tspan class="cls-71" x="122.44" y="0">n</tspan><tspan class="cls-112" x="129.5" y="0">t</tspan><tspan class="cls-113" x="134.11" y="0">e</tspan></text><text class="cls-27" transform="translate(210.6 253.86) scale(1.01 1)">Estagiário, FINEP</text><text class="cls-110" transform="translate(211.1 269.16)">Manutenção e desenvolvimento dos sistemas e processos internos da <tspan x="0" y="12">empresa. Utilizando o Java 7 e 8, Hibernate, Maven, banco de dados Oracle, </tspan><tspan x="0" y="23.99">Camunda BPMN e o framework web ZK. Ferramentas utilizadas: Eclipse, Jira, </tspan><tspan x="0" y="35.99">Gitea e Camunda Modeler.</tspan></text><text class="cls-114" transform="translate(15.56 238.26)">Forte:</text><rect class="cls-3" x="8.74" y="241.3" width="161.95" height="0.93"/><text class="cls-115" transform="translate(16.56 262.04)">- Java</text><text class="cls-115" transform="translate(16.56 281.72)">- C#</text><text class="cls-115" transform="translate(16.56 301.63)">- Javascript</text><text class="cls-115" transform="translate(16.56 322.2)">- Git</text><rect class="cls-3" x="9.37" y="430.32" width="161.95" height="0.93"/><text class="cls-116" transform="translate(16.56 427.11)">Conhecedor:</text><text class="cls-115" transform="translate(16.56 447.64)">- React</text><text class="cls-115" transform="translate(16.56 470.32)">- React Native</text><text class="cls-115" transform="translate(16.56 492.65)">- NodeJs</text><text class="cls-115" transform="translate(16.56 514.58)">- Typescript</text><text class="cls-115" transform="translate(16.56 538.05)">- Microsoft SQL Server</text><text class="cls-115" transform="translate(16.56 583.37)">- PostgresSQL</text><text class="cls-115" transform="translate(16.56 561.28)">- MongoDB</text><text class="cls-49" transform="translate(214.73 682.82)">Desenvolvimento Web -<tspan class="cls-117" x="121.45" y="0"> </tspan><tspan x="123.86" y="0">TIM</tspan><tspan class="cls-118" x="142.89" y="0"> </tspan><tspan class="cls-119" x="145.31" y="0">T</tspan><tspan x="150.59" y="0">ec</tspan></text><text class="cls-49" transform="translate(214.23 702.66)">Semana Omnistack - Rockeseat</text><text class="cls-49" transform="translate(214.73 723.21)">Next Level Week - Rockeseat</text><text class="cls-115" transform="translate(16.56 340.39)">- Banco de dados Oracle</text><text class="cls-115" transform="translate(16.56 360.94)">- Camunda BPMN</text><text class="cls-115" transform="translate(16.56 604.73)">- Maven</text><text class="cls-115" transform="translate(16.56 625.12)">- Jira</text></svg>